<?xml version="1.0" encoding="utf-8" ?>
<svg baseProfile="full" height="4200px" version="1.1" width="3200px" xmlns="http://www.w3.org/2000/svg" xmlns:ev="http://www.w3.org/2001/xml-events" xmlns:xlink="http://www.w3.org/1999/xlink"><defs><style type="text/css"><![CDATA[
    text { font-family: Inter, Arial, sans-serif; }
    .title { font-weight: 800; font-size: 46px; }
    .sub { font-size: 24px; }
    .h1 { font-size: 58px; font-weight: 800; }
    .h1m { font-size: 34px; font-weight: 800; }
    .bold { font-weight: 700; }
    .semi { font-weight: 600; }
    .small { font-size: 16px; }
    .body { font-size: 22px; }
    .muted { font-size: 18px; }
    ]]></style></defs><g id="light_theme_section"><rect fill="#F4F8FC" height="1980" width="3200" x="0" y="0" /><text class="title" fill="#0F2036" x="96" y="104">Onboarding — светлая тема</text><text class="sub" fill="#5C7188" x="96" y="148">Слева — web/desktop, справа — тот же экран в mobile. Все шаги онбординга показаны без слайдера.</text><text fill="#5C7188" font-size="18" font-weight="800" x="96" y="198">WEB / DESKTOP</text><text fill="#5C7188" font-size="18" font-weight="800" x="2355" y="198">MOBILE</text><g id="desktop_light"><rect fill="#FFFFFF" height="1210" id="desktop_window" opacity="1" rx="44" ry="44" stroke="#DAE4EF" stroke-width="2" width="2140" x="96" y="215" /><rect fill="#F5FAFF" height="86" id="browser_bar" opacity="1" rx="44" ry="44" stroke="none" stroke-width="1" width="2140" x="96" y="215" /><circle cx="140" cy="257" fill="#FF5F57" r="8" /><circle cx="170" cy="257" fill="#FFBD2E" r="8" /><circle cx="200" cy="257" fill="#28C840" r="8" /><rect fill="#F4F8FC" height="36" id="url_bar" opacity="1" rx="18" ry="18" stroke="none" stroke-width="1" width="1660" x="336" y="241" /><text fill="#5C7188" font-size="14" x="381" y="264">belpomoshnik.by/onboarding</text><g id="logo"><rect fill="#2AA4EF" height="54" id="logo_bg" opacity="1" rx="18.0" ry="18.0" stroke="none" stroke-width="1" width="54" x="166" y="321" /><polygon fill="white" points="178.96,348.0 208.12,335.04 197.32,360.96 191.92,350.7" /><polygon fill="#D8EEFF" points="191.92,350.7 186.52,360.42 196.24,354.48" /></g><text fill="#0F2036" font-size="28" font-weight="800" x="234" y="362">Белпомощник</text><rect fill="#DAF1FF" height="40" id="nav_Помощь" opacity="1" rx="20" ry="20" stroke="none" stroke-width="1" width="142" x="594" y="326" /><text fill="#0F2036" font-size="18" font-weight="600" x="616" y="352">Помощь</text><rect fill="#F4F8FC" height="40" id="nav_Сценарии" opacity="1" rx="20" ry="20" stroke="none" stroke-width="1" width="142" x="772" y="326" /><text fill="#0F2036" font-size="18" font-weight="600" x="794" y="352">Сценарии</text><rect fill="#F4F8FC" height="40" id="nav_Законы" opacity="1" rx="20" ry="20" stroke="none" stroke-width="1" width="142" x="950" y="326" /><text fill="#0F2036" font-size="18" font-weight="600" x="972" y="352">Законы</text><rect fill="#F4F8FC" height="40" id="nav_Документы" opacity="1" rx="20" ry="20" stroke="none" stroke-width="1" width="142" x="1128" y="326" /><text fill="#0F2036" font-size="18" font-weight="600" x="1150" y="352">Документы</text><rect fill="#2AA4EF" height="48" id="login_button" opacity="1" rx="24" ry="24" stroke="none" stroke-width="1" width="140" x="2026" y="324" /><text fill="white" font-size="17" font-weight="700" x="2061" y="356">Войти</text><rect fill="#DAF1FF" height="42" id="badge" opacity="1" rx="21" ry="21" stroke="none" stroke-width="1" width="226" x="168" y="445" /><text fill="#2AA4EF" font-size="16" font-weight="600" x="191" y="473">mobile-first • РБ</text><text fill="#0F2036" font-size="58" font-weight="800" x="168" y="565">Помощник, который</text><text fill="#0F2036" font-size="58" font-weight="800" x="168" y="633">превращает проблему</text><text fill="#0F2036" font-size="58" font-weight="800" x="168" y="701">в понятный план</text><text fill="#5C7188" font-size="24" x="168" y="790">Найдите жизненную ситуацию, получите чек-лист, сроки, документы</text><text fill="#5C7188" font-size="24" x="168" y="825">и напоминания без канцелярита.</text><rect fill="#FFFFFF" height="126" id="search_card" opacity="1" rx="30" ry="30" stroke="#DAE4EF" stroke-width="1" width="858" x="168" y="895" /><rect fill="#F4F8FC" height="56" id="search_input" opacity="1" rx="28" ry="28" stroke="none" stroke-width="1" width="630" x="196" y="926" /><text fill="#5C7188" font-size="20" x="261" y="962">Паспорт, ЖКХ, налоги, прописка…</text><rect fill="#2AA4EF" height="56" id="search_button" opacity="1" rx="28" ry="28" stroke="none" stroke-width="1" width="154" x="844" y="926" /><text fill="white" font-size="20" font-weight="700" x="876" y="962">Найти</text><rect fill="#2AA4EF" height="62" id="cta_start" opacity="1" rx="31" ry="31" stroke="none" stroke-width="1" width="240" x="168" y="1059" /><text fill="white" font-size="21" font-weight="700" x="208" y="1099">Начать</text><rect fill="#FAFDFF" height="62" id="cta_login" opacity="1" rx="31" ry="31" stroke="#DAE4EF" stroke-width="1" width="326" x="430" y="1059" /><text fill="#0F2036" font-size="21" font-weight="600" x="468" y="1099">У меня уже есть аккаунт</text><rect fill="#FFFFFF" height="150" id="feature_0" opacity="1" rx="28" ry="28" stroke="#DAE4EF" stroke-width="1" width="560" x="168" y="1155" /><rect fill="#DAF1FF" height="52" id="feature_icon_0" opacity="1" rx="18" ry="18" stroke="none" stroke-width="1" width="52" x="190" y="1177" /><text fill="#0F2036" font-size="26" font-weight="700" x="260" y="1207">Найдите проблему</text><text fill="#5C7188" font-size="18" x="260" y="1243">Поиск по словам и быстрые категории.</text><rect fill="#FFFFFF" height="150" id="feature_1" opacity="1" rx="28" ry="28" stroke="#DAE4EF" stroke-width="1" width="560" x="758" y="1155" /><rect fill="#DAF1FF" height="52" id="feature_icon_1" opacity="1" rx="18" ry="18" stroke="none" stroke-width="1" width="52" x="780" y="1177" /><text fill="#0F2036" font-size="26" font-weight="700" x="850" y="1207">Получите план</text><text fill="#5C7188" font-size="18" x="850" y="1243">Короткие шаги, сроки и документы.</text><rect fill="#FFFFFF" height="150" id="feature_2" opacity="1" rx="28" ry="28" stroke="#DAE4EF" stroke-width="1" width="560" x="1348" y="1155" /><rect fill="#DAF1FF" height="52" id="feature_icon_2" opacity="1" rx="18" ry="18" stroke="none" stroke-width="1" width="52" x="1370" y="1177" /><text fill="#0F2036" font-size="26" font-weight="700" x="1440" y="1207">Не пропустите срок</text><text fill="#5C7188" font-size="18" x="1440" y="1243">Напоминания по задачам и законам.</text><rect fill="#FFFFFF" height="625" id="right_plan_card" opacity="1" rx="44" ry="44" stroke="#DAE4EF" stroke-width="1" width="690" x="1416" y="475" /><text fill="#0F2036" font-size="32" font-weight="800" x="1462" y="551">Ваш первый план</text><text fill="#5C7188" font-size="19" x="1462" y="583">Онбординг без лишних вопросов</text><rect fill="#FFFFFF" height="86" id="plan_step_0" opacity="1" rx="22" ry="22" stroke="#DAE4EF" stroke-width="1" width="606" x="1458" y="610" /><rect fill="#DAF1FF" height="50" id="plan_step_icon_0" opacity="1" rx="17" ry="17" stroke="none" stroke-width="1" width="50" x="1476" y="628" /><text fill="#0F2036" font-size="20" font-weight="700" x="1542" y="655">Выберите сценарий</text><text fill="#5C7188" font-size="16" x="1542" y="682">Например: рождение ребёнка</text><rect fill="#FFFFFF" height="86" id="plan_step_1" opacity="1" rx="22" ry="22" stroke="#DAE4EF" stroke-width="1" width="606" x="1458" y="718" /><rect fill="#DAF1FF" height="50" id="plan_step_icon_1" opacity="1" rx="17" ry="17" stroke="none" stroke-width="1" width="50" x="1476" y="736" /><text fill="#0F2036" font-size="20" font-weight="700" x="1542" y="763">Получите чек-лист</text><text fill="#5C7188" font-size="16" x="1542" y="790">Задачи, документы, сроки</text><rect fill="#FFFFFF" height="86" id="plan_step_2" opacity="1" rx="22" ry="22" stroke="#DAE4EF" stroke-width="1" width="606" x="1458" y="826" /><rect fill="#DAF1FF" height="50" id="plan_step_icon_2" opacity="1" rx="17" ry="17" stroke="none" stroke-width="1" width="50" x="1476" y="844" /><text fill="#0F2036" font-size="20" font-weight="700" x="1542" y="871">Следите за прогрессом</text><text fill="#5C7188" font-size="16" x="1542" y="898">Отмечайте выполненное</text></g><g id="mobile_light"><rect fill="#081220" height="1210" id="phone_frame" opacity="1" rx="60" ry="60" stroke="#142D46" stroke-width="2" width="560" x="2385" y="215" /><rect fill="#F6FAFE" height="1170" id="phone_screen" opacity="1" rx="44" ry="44" stroke="none" stroke-width="1" width="520" x="2405" y="235" /><text fill="#0F2036" font-size="17" font-weight="600" x="2435" y="280">9:41</text><rect fill="#0A1525" height="26" id="notch" opacity="1" rx="13" ry="13" stroke="none" stroke-width="1" width="100" x="2615.0" y="249" /><g id="logo"><rect fill="#2AA4EF" height="46" id="logo_bg" opacity="1" rx="15.333333333333334" ry="15.333333333333334" stroke="none" stroke-width="1" width="46" x="2435" y="311" /><polygon fill="white" points="2446.04,334.0 2470.88,322.96 2461.68,345.04 2457.08,336.3" /><polygon fill="#D8EEFF" points="2457.08,336.3 2452.48,344.58 2460.76,339.52" /></g><text fill="#0F2036" font-size="23" font-weight="800" x="2493" y="348">Белпомощник</text><rect fill="#DAF1FF" height="46" id="profile_circle" opacity="1" rx="23" ry="23" stroke="none" stroke-width="1" width="46" x="2849" y="314" /><rect fill="#DAF1FF" height="38" id="badge" opacity="1" rx="19" ry="19" stroke="none" stroke-width="1" width="190" x="2435" y="449" /><text fill="#2AA4EF" font-size="14" font-weight="600" x="2455" y="475">mobile-first • РБ</text><text fill="#0F2036" font-size="34" font-weight="800" x="2435" y="551">Проблема →</text><text fill="#0F2036" font-size="34" font-weight="800" x="2435" y="593">понятный план</text><text fill="#5C7188" font-size="18" x="2435" y="637">Выберите ситуацию, получите шаги, документы</text><text fill="#5C7188" font-size="18" x="2435" y="665">и напоминания.</text><rect fill="#FFFFFF" height="72" id="mobile_search" opacity="1" rx="25" ry="25" stroke="#DAE4EF" stroke-width="1" width="460" x="2435" y="705" /><text fill="#5C7188" font-size="18" x="2497" y="750">Что случилось?</text><rect fill="#2AA4EF" height="60" id="mobile_cta" opacity="1" rx="30" ry="30" stroke="none" stroke-width="1" width="460" x="2435" y="801" /><text fill="white" font-size="20" font-weight="700" text-anchor="middle" x="2665.0" y="839">Начать</text><rect fill="#FAFDFF" height="52" id="mobile_login" opacity="1" rx="26" ry="26" stroke="#DAE4EF" stroke-width="1" width="460" x="2435" y="877" /><text fill="#0F2036" font-size="18" font-weight="600" text-anchor="middle" x="2665.0" y="911">У меня уже есть аккаунт</text><rect fill="#FFFFFF" height="98" id="mobile_step_01" opacity="1" rx="24" ry="24" stroke="#DAE4EF" stroke-width="1" width="460" x="2435" y="961" /><rect fill="#DAF1FF" height="52" id="mobile_step_icon_01" opacity="1" rx="18" ry="18" stroke="none" stroke-width="1" width="52" x="2455" y="984" /><text fill="#0F2036" font-size="19" font-weight="700" x="2525" y="1009">Найдите проблему</text><text fill="#5C7188" font-size="14" x="2525" y="1037">Поиск и категории.</text><text fill="#DAE4EF" font-size="22" font-weight="800" x="2850" y="1019">01</text><rect fill="#FFFFFF" height="98" id="mobile_step_02" opacity="1" rx="24" ry="24" stroke="#DAE4EF" stroke-width="1" width="460" x="2435" y="1081" /><rect fill="#DAF1FF" height="52" id="mobile_step_icon_02" opacity="1" rx="18" ry="18" stroke="none" stroke-width="1" width="52" x="2455" y="1104" /><text fill="#0F2036" font-size="19" font-weight="700" x="2525" y="1129">Получите план</text><text fill="#5C7188" font-size="14" x="2525" y="1157">Шаги, сроки, документы.</text><text fill="#DAE4EF" font-size="22" font-weight="800" x="2850" y="1139">02</text><rect fill="#FFFFFF" height="98" id="mobile_step_03" opacity="1" rx="24" ry="24" stroke="#DAE4EF" stroke-width="1" width="460" x="2435" y="1201" /><rect fill="#DAF1FF" height="52" id="mobile_step_icon_03" opacity="1" rx="18" ry="18" stroke="none" stroke-width="1" width="52" x="2455" y="1224" /><text fill="#0F2036" font-size="19" font-weight="700" x="2525" y="1249">Следите за сроками</text><text fill="#5C7188" font-size="14" x="2525" y="1277">Напоминания и задачи.</text><text fill="#DAE4EF" font-size="22" font-weight="800" x="2850" y="1259">03</text><rect fill="#FFFFFF" height="76" id="bottom_nav" opacity="1" rx="32" ry="32" stroke="#DAE4EF" stroke-width="1" width="468" x="2431" y="1309" /></g></g><g id="dark_theme_section"><rect fill="#07111F" height="1980" width="3200" x="0" y="2028" /><text class="title" fill="#EDF6FF" x="96" y="2132">Onboarding — тёмная тема</text><text class="sub" fill="#96A9BE" x="96" y="2176">Слева — web/desktop, справа — тот же экран в mobile. Все шаги онбординга показаны без слайдера.</text><text fill="#96A9BE" font-size="18" font-weight="800" x="96" y="2226">WEB / DESKTOP</text><text fill="#96A9BE" font-size="18" font-weight="800" x="2355" y="2226">MOBILE</text><g id="desktop_dark"><rect fill="#0E192A" height="1210" id="desktop_window" opacity="1" rx="44" ry="44" stroke="#2B415B" stroke-width="2" width="2140" x="96" y="2243" /><rect fill="#0A1424" height="86" id="browser_bar" opacity="1" rx="44" ry="44" stroke="none" stroke-width="1" width="2140" x="96" y="2243" /><circle cx="140" cy="2285" fill="#FF5F57" r="8" /><circle cx="170" cy="2285" fill="#FFBD2E" r="8" /><circle cx="200" cy="2285" fill="#28C840" r="8" /><rect fill="#0A182A" height="36" id="url_bar" opacity="1" rx="18" ry="18" stroke="none" stroke-width="1" width="1660" x="336" y="2269" /><text fill="#96A9BE" font-size="14" x="381" y="2292">belpomoshnik.by/onboarding</text><g id="logo"><rect fill="#2AA4EF" height="54" id="logo_bg" opacity="1" rx="18.0" ry="18.0" stroke="none" stroke-width="1" width="54" x="166" y="2349" /><polygon fill="white" points="178.96,2376.0 208.12,2363.04 197.32,2388.96 191.92,2378.7" /><polygon fill="#D8EEFF" points="191.92,2378.7 186.52,2388.42 196.24,2382.48" /></g><text fill="#EDF6FF" font-size="28" font-weight="800" x="234" y="2390">Белпомощник</text><rect fill="#103E5D" height="40" id="nav_Помощь" opacity="1" rx="20" ry="20" stroke="none" stroke-width="1" width="142" x="594" y="2354" /><text fill="#EDF6FF" font-size="18" font-weight="600" x="616" y="2380">Помощь</text><rect fill="#0A182A" height="40" id="nav_Сценарии" opacity="1" rx="20" ry="20" stroke="none" stroke-width="1" width="142" x="772" y="2354" /><text fill="#EDF6FF" font-size="18" font-weight="600" x="794" y="2380">Сценарии</text><rect fill="#0A182A" height="40" id="nav_Законы" opacity="1" rx="20" ry="20" stroke="none" stroke-width="1" width="142" x="950" y="2354" /><text fill="#EDF6FF" font-size="18" font-weight="600" x="972" y="2380">Законы</text><rect fill="#0A182A" height="40" id="nav_Документы" opacity="1" rx="20" ry="20" stroke="none" stroke-width="1" width="142" x="1128" y="2354" /><text fill="#EDF6FF" font-size="18" font-weight="600" x="1150" y="2380">Документы</text><rect fill="#2AA4EF" height="48" id="login_button" opacity="1" rx="24" ry="24" stroke="none" stroke-width="1" width="140" x="2026" y="2352" /><text fill="white" font-size="17" font-weight="700" x="2061" y="2384">Войти</text><rect fill="#103E5D" height="42" id="badge" opacity="1" rx="21" ry="21" stroke="none" stroke-width="1" width="226" x="168" y="2473" /><text fill="#2AA4EF" font-size="16" font-weight="600" x="191" y="2501">mobile-first • РБ</text><text fill="#EDF6FF" font-size="58" font-weight="800" x="168" y="2593">Помощник, который</text><text fill="#EDF6FF" font-size="58" font-weight="800" x="168" y="2661">превращает проблему</text><text fill="#EDF6FF" font-size="58" font-weight="800" x="168" y="2729">в понятный план</text><text fill="#96A9BE" font-size="24" x="168" y="2818">Найдите жизненную ситуацию, получите чек-лист, сроки, документы</text><text fill="#96A9BE" font-size="24" x="168" y="2853">и напоминания без канцелярита.</text><rect fill="#112034" height="126" id="search_card" opacity="1" rx="30" ry="30" stroke="#2B415B" stroke-width="1" width="858" x="168" y="2923" /><rect fill="#0A182A" height="56" id="search_input" opacity="1" rx="28" ry="28" stroke="none" stroke-width="1" width="630" x="196" y="2954" /><text fill="#96A9BE" font-size="20" x="261" y="2990">Паспорт, ЖКХ, налоги, прописка…</text><rect fill="#2AA4EF" height="56" id="search_button" opacity="1" rx="28" ry="28" stroke="none" stroke-width="1" width="154" x="844" y="2954" /><text fill="white" font-size="20" font-weight="700" x="876" y="2990">Найти</text><rect fill="#2AA4EF" height="62" id="cta_start" opacity="1" rx="31" ry="31" stroke="none" stroke-width="1" width="240" x="168" y="3087" /><text fill="white" font-size="21" font-weight="700" x="208" y="3127">Начать</text><rect fill="#12243A" height="62" id="cta_login" opacity="1" rx="31" ry="31" stroke="#2B415B" stroke-width="1" width="326" x="430" y="3087" /><text fill="#EDF6FF" font-size="21" font-weight="600" x="468" y="3127">У меня уже есть аккаунт</text><rect fill="#112034" height="150" id="feature_0" opacity="1" rx="28" ry="28" stroke="#2B415B" stroke-width="1" width="560" x="168" y="3183" /><rect fill="#103E5D" height="52" id="feature_icon_0" opacity="1" rx="18" ry="18" stroke="none" stroke-width="1" width="52" x="190" y="3205" /><text fill="#EDF6FF" font-size="26" font-weight="700" x="260" y="3235">Найдите проблему</text><text fill="#96A9BE" font-size="18" x="260" y="3271">Поиск по словам и быстрые категории.</text><rect fill="#112034" height="150" id="feature_1" opacity="1" rx="28" ry="28" stroke="#2B415B" stroke-width="1" width="560" x="758" y="3183" /><rect fill="#103E5D" height="52" id="feature_icon_1" opacity="1" rx="18" ry="18" stroke="none" stroke-width="1" width="52" x="780" y="3205" /><text fill="#EDF6FF" font-size="26" font-weight="700" x="850" y="3235">Получите план</text><text fill="#96A9BE" font-size="18" x="850" y="3271">Короткие шаги, сроки и документы.</text><rect fill="#112034" height="150" id="feature_2" opacity="1" rx="28" ry="28" stroke="#2B415B" stroke-width="1" width="560" x="1348" y="3183" /><rect fill="#103E5D" height="52" id="feature_icon_2" opacity="1" rx="18" ry="18" stroke="none" stroke-width="1" width="52" x="1370" y="3205" /><text fill="#EDF6FF" font-size="26" font-weight="700" x="1440" y="3235">Не пропустите срок</text><text fill="#96A9BE" font-size="18" x="1440" y="3271">Напоминания по задачам и законам.</text><rect fill="#112034" height="625" id="right_plan_card" opacity="1" rx="44" ry="44" stroke="#2B415B" stroke-width="1" width="690" x="1416" y="2503" /><text fill="#EDF6FF" font-size="32" font-weight="800" x="1462" y="2579">Ваш первый план</text><text fill="#96A9BE" font-size="19" x="1462" y="2611">Онбординг без лишних вопросов</text><rect fill="#112034" height="86" id="plan_step_0" opacity="1" rx="22" ry="22" stroke="#2B415B" stroke-width="1" width="606" x="1458" y="2638" /><rect fill="#103E5D" height="50" id="plan_step_icon_0" opacity="1" rx="17" ry="17" stroke="none" stroke-width="1" width="50" x="1476" y="2656" /><text fill="#EDF6FF" font-size="20" font-weight="700" x="1542" y="2683">Выберите сценарий</text><text fill="#96A9BE" font-size="16" x="1542" y="2710">Например: рождение ребёнка</text><rect fill="#112034" height="86" id="plan_step_1" opacity="1" rx="22" ry="22" stroke="#2B415B" stroke-width="1" width="606" x="1458" y="2746" /><rect fill="#103E5D" height="50" id="plan_step_icon_1" opacity="1" rx="17" ry="17" stroke="none" stroke-width="1" width="50" x="1476" y="2764" /><text fill="#EDF6FF" font-size="20" font-weight="700" x="1542" y="2791">Получите чек-лист</text><text fill="#96A9BE" font-size="16" x="1542" y="2818">Задачи, документы, сроки</text><rect fill="#112034" height="86" id="plan_step_2" opacity="1" rx="22" ry="22" stroke="#2B415B" stroke-width="1" width="606" x="1458" y="2854" /><rect fill="#103E5D" height="50" id="plan_step_icon_2" opacity="1" rx="17" ry="17" stroke="none" stroke-width="1" width="50" x="1476" y="2872" /><text fill="#EDF6FF" font-size="20" font-weight="700" x="1542" y="2899">Следите за прогрессом</text><text fill="#96A9BE" font-size="16" x="1542" y="2926">Отмечайте выполненное</text></g><g id="mobile_dark"><rect fill="#040A14" height="1210" id="phone_frame" opacity="1" rx="60" ry="60" stroke="#304D67" stroke-width="2" width="560" x="2385" y="2243" /><rect fill="#091220" height="1170" id="phone_screen" opacity="1" rx="44" ry="44" stroke="none" stroke-width="1" width="520" x="2405" y="2263" /><text fill="#EDF6FF" font-size="17" font-weight="600" x="2435" y="2308">9:41</text><rect fill="#000000" height="26" id="notch" opacity="1" rx="13" ry="13" stroke="none" stroke-width="1" width="100" x="2615.0" y="2277" /><g id="logo"><rect fill="#2AA4EF" height="46" id="logo_bg" opacity="1" rx="15.333333333333334" ry="15.333333333333334" stroke="none" stroke-width="1" width="46" x="2435" y="2339" /><polygon fill="white" points="2446.04,2362.0 2470.88,2350.96 2461.68,2373.04 2457.08,2364.3" /><polygon fill="#D8EEFF" points="2457.08,2364.3 2452.48,2372.58 2460.76,2367.52" /></g><text fill="#EDF6FF" font-size="23" font-weight="800" x="2493" y="2376">Белпомощник</text><rect fill="#103E5D" height="46" id="profile_circle" opacity="1" rx="23" ry="23" stroke="none" stroke-width="1" width="46" x="2849" y="2342" /><rect fill="#103E5D" height="38" id="badge" opacity="1" rx="19" ry="19" stroke="none" stroke-width="1" width="190" x="2435" y="2477" /><text fill="#2AA4EF" font-size="14" font-weight="600" x="2455" y="2503">mobile-first • РБ</text><text fill="#EDF6FF" font-size="34" font-weight="800" x="2435" y="2579">Проблема →</text><text fill="#EDF6FF" font-size="34" font-weight="800" x="2435" y="2621">понятный план</text><text fill="#96A9BE" font-size="18" x="2435" y="2665">Выберите ситуацию, получите шаги, документы</text><text fill="#96A9BE" font-size="18" x="2435" y="2693">и напоминания.</text><rect fill="#112034" height="72" id="mobile_search" opacity="1" rx="25" ry="25" stroke="#2B415B" stroke-width="1" width="460" x="2435" y="2733" /><text fill="#96A9BE" font-size="18" x="2497" y="2778">Что случилось?</text><rect fill="#2AA4EF" height="60" id="mobile_cta" opacity="1" rx="30" ry="30" stroke="none" stroke-width="1" width="460" x="2435" y="2829" /><text fill="white" font-size="20" font-weight="700" text-anchor="middle" x="2665.0" y="2867">Начать</text><rect fill="#12243A" height="52" id="mobile_login" opacity="1" rx="26" ry="26" stroke="#2B415B" stroke-width="1" width="460" x="2435" y="2905" /><text fill="#EDF6FF" font-size="18" font-weight="600" text-anchor="middle" x="2665.0" y="2939">У меня уже есть аккаунт</text><rect fill="#112034" height="98" id="mobile_step_01" opacity="1" rx="24" ry="24" stroke="#2B415B" stroke-width="1" width="460" x="2435" y="2989" /><rect fill="#103E5D" height="52" id="mobile_step_icon_01" opacity="1" rx="18" ry="18" stroke="none" stroke-width="1" width="52" x="2455" y="3012" /><text fill="#EDF6FF" font-size="19" font-weight="700" x="2525" y="3037">Найдите проблему</text><text fill="#96A9BE" font-size="14" x="2525" y="3065">Поиск и категории.</text><text fill="#2B415B" font-size="22" font-weight="800" x="2850" y="3047">01</text><rect fill="#112034" height="98" id="mobile_step_02" opacity="1" rx="24" ry="24" stroke="#2B415B" stroke-width="1" width="460" x="2435" y="3109" /><rect fill="#103E5D" height="52" id="mobile_step_icon_02" opacity="1" rx="18" ry="18" stroke="none" stroke-width="1" width="52" x="2455" y="3132" /><text fill="#EDF6FF" font-size="19" font-weight="700" x="2525" y="3157">Получите план</text><text fill="#96A9BE" font-size="14" x="2525" y="3185">Шаги, сроки, документы.</text><text fill="#2B415B" font-size="22" font-weight="800" x="2850" y="3167">02</text><rect fill="#112034" height="98" id="mobile_step_03" opacity="1" rx="24" ry="24" stroke="#2B415B" stroke-width="1" width="460" x="2435" y="3229" /><rect fill="#103E5D" height="52" id="mobile_step_icon_03" opacity="1" rx="18" ry="18" stroke="none" stroke-width="1" width="52" x="2455" y="3252" /><text fill="#EDF6FF" font-size="19" font-weight="700" x="2525" y="3277">Следите за сроками</text><text fill="#96A9BE" font-size="14" x="2525" y="3305">Напоминания и задачи.</text><text fill="#2B415B" font-size="22" font-weight="800" x="2850" y="3287">03</text><rect fill="#0E1D30" height="76" id="bottom_nav" opacity="1" rx="32" ry="32" stroke="#2B415B" stroke-width="1" width="468" x="2431" y="3337" /></g></g><rect fill="#FFFFFF" height="48" width="3200" x="0" y="1980" /><text fill="#5C7188" font-size="22" font-weight="600" text-anchor="middle" x="1600.0" y="2010">↓ тёмная версия того же экрана ↓</text><text fill="#94A1B0" font-size="18" x="96" y="4120">Белпомощник · onboarding concept · Telegram-like UI without message bubbles</text></svg>